# xmcd
#
# Track frame offsets:
#	150
#	22702
#	40175
#	60137
#
# Disc length: 1096 seconds
#
# Revision: 1
# Processed by: cddbd v1.5PL3 Copyright (c) Steve Scherf et al.
# Submitted via: CDex 1.50Beta5
#
DISCID=1d044604
DTITLE=篠原ともえ - 君んち。
DYEAR=1999
DGENRE=Pop
TTITLE0=君んち。
TTITLE1=すてきな日曜日
TTITLE2=THE BEST OF MINE
TTITLE3=君んち。
EXTD=
EXTT0=
EXTT1=
EXTT2=
EXTT3=
PLAYORDER=
